# xmcd
#
# Track frame offsets: 
#        150
#        18272
#        37543
#        51835
#        69776
#        87530
#        108536
#        122295
#        137989
#        157639
#        170266
#        181596
#        196091
#        211711
#        226959
#        246999
#        263408
#        280895
#
# Disc length: 3988 seconds
#
# Revision: 4
# Processed by: cddbd v1.5.1PL0 Copyright (c) Steve Scherf et al.
# Submitted via: ExactAudioCopy v0.95b2
#
DISCID=d70f9212
DTITLE=Various Artist - Heartland 2
DYEAR=2005
DGENRE=Country
TTITLE0=Sara Evans - Rockin' Horse
TTITLE1=Carolyn Dawn Johnson - Dress Rehearsal
TTITLE2=Rachel Proctor - Days Like This
TTITLE3=Michelle Wright - Take It Like A Man
TTITLE4=Jessica Andrews - To Love You Once
TTITLE5=Jessi Alexander - Honeysuckle Sweet
TTITLE6=Stephanie Bentley - Who's That Girl
TTITLE7=Martina McBride - Happy Girl
TTITLE8=Kellie Coffey - At The End Of The Day
TTITLE9=Shelly Fairchild - You Don't Lie Here Anymore
TTITLE10=Siobhan Maher-Kennedy - Promise You Anything
TTITLE11=Mindy McCready - Guys Do It All The Time
TTITLE12=Sherrié Austin - Lucky In Love
TTITLE13=Patty Loveless - You Can Feel Bad
TTITLE14=Sara Evans - Saints and Angels
TTITLE15=Rachel Proctor - We Did It Our Way
TTITLE16=Mary Chapin Carpenter - Middle Ground
TTITLE17=Joy Lynn White - Cold Day In July
EXTD=YEAR: 2005
EXTT0=
EXTT1=
EXTT2=
EXTT3=
EXTT4=
EXTT5=
EXTT6=
EXTT7=
EXTT8=
EXTT9=
EXTT10=
EXTT11=
EXTT12=
EXTT13=
EXTT14=
EXTT15=
EXTT16=
EXTT17=
PLAYORDER=
